# xmcd
#
# Track frame offsets: 
#        150
#        18230
#        48457
#        60730
#        75467
#        93725
#        106565
#        119125
#        133195
#        152505
#        170162
#        198120
#        211395
#        231800
#        247280
#        259667
#        296375
#        321417
#
# Disc length: 4495 seconds
#
# Revision: 2
# Processed by: cddbd v1.5.2PL0 Copyright (c) Steve Scherf et al.
# Submitted via: ExactAudioCopy v1.1
#
DISCID=04118d12
DTITLE=Little Sonny - New King Of The Blues Harmonica - Hard Goin' Up
DYEAR=1970
DGENRE=Blues
TTITLE0=Baby, What You Want Me To Do
TTITLE1=Eli's Pork Chop
TTITLE2=Hey Little Girl
TTITLE3=Hot Potato
TTITLE4=Don't Ask Me No Questions
TTITLE5=Tomorrow's Blues Today
TTITLE6=Back Down Yonder
TTITLE7=Sad Funk
TTITLE8=The Creeper Returns
TTITLE9=It's Hard Going Up (But Twice As Hard Coming Down)
TTITLE10=My Woman Is Good To Me
TTITLE11=You're Spreading Yourself A Little Too Thin
TTITLE12=The Day You Left Me
TTITLE13=You Can Be Replaced
TTITLE14=Do It Right Now
TTITLE15=You Made Me Strong
TTITLE16=Sure Is Good
TTITLE17=I Want You
EXTD=YEAR: 1970
EXTT0=
EXTT1=
EXTT2=
EXTT3=
EXTT4=
EXTT5=
EXTT6=
EXTT7=
EXTT8=
EXTT9=
EXTT10=
EXTT11=
EXTT12=
EXTT13=
EXTT14=
EXTT15=
EXTT16=
EXTT17=
PLAYORDER=
